<svg xmlns="http://www.w3.org/2000/svg" viewBox="0 0 15 15" width="15" height="15">
	<style>
		tspan { white-space:pre }
		.shp0 { opacity: 0.702;fill: #e45028 } 
	</style>
	<g id="reviews_popup">
		<path id="close" class="shp0" d="M14.5 2.81L2.81 14.5C2.17 15.14 1.12 15.14 0.48 14.5C-0.17 13.85 -0.17 12.81 0.48 12.16L12.16 0.48C12.81 -0.17 13.85 -0.17 14.5 0.48C15.14 1.12 15.14 2.17 14.5 2.81ZM2.81 0.48L14.5 12.16C15.14 12.81 15.14 13.85 14.5 14.5C13.85 15.14 12.81 15.14 12.16 14.5L0.48 2.81C-0.17 2.17 -0.17 1.12 0.48 0.48C1.12 -0.17 2.17 -0.17 2.81 0.48Z" />
	</g>
</svg>